<svg xmlns="http://www.w3.org/2000/svg" viewBox="0 0 16 16" shape-rendering="crispEdges" fill="none">
  
  
  <rect x="2" y="6" width="2" height="2" fill="#5a6270"></rect>
  <rect x="3" y="5" width="2" height="2" fill="#5a6270"></rect>
  <rect x="4" y="4" width="3" height="2" fill="#5a6270"></rect>
  <rect x="6" y="3" width="4" height="2" fill="#5a6270"></rect>
  <rect x="9" y="4" width="3" height="2" fill="#5a6270"></rect>
  <rect x="11" y="5" width="2" height="2" fill="#5a6270"></rect>
  <rect x="12" y="6" width="2" height="2" fill="#5a6270"></rect>
  <rect x="13" y="7" width="1" height="1" fill="#5a6270"></rect>
  
  <rect x="5" y="6" width="2" height="2" fill="#7c8694"></rect>
  <rect x="7" y="5" width="2" height="2" fill="#7c8694"></rect>
  <rect x="9" y="6" width="2" height="2" fill="#7c8694"></rect>
  
  <rect x="6" y="6" width="1" height="1" fill="#3a4252"></rect>
  <rect x="8" y="5" width="1" height="1" fill="#3a4252"></rect>
  <rect x="10" y="6" width="1" height="1" fill="#3a4252"></rect>
  
  <rect x="2" y="8" width="2" height="2" fill="#3a4252"></rect>
  <rect x="3" y="9" width="2" height="2" fill="#3a4252"></rect>
  <rect x="4" y="10" width="2" height="2" fill="#3a4252"></rect>
</svg>