<svg xmlns="http://www.w3.org/2000/svg" viewBox="0 0 24 24" shape-rendering="crispEdges" fill="none">
  
  
  <g fill="#15171a">
    <rect x="0" y="0" width="2" height="2"></rect>
    <rect x="0" y="2" width="2" height="2"></rect>
    <rect x="0" y="4" width="2" height="2"></rect>
    <rect x="0" y="6" width="2" height="2"></rect>
    <rect x="0" y="8" width="2" height="2"></rect>
    <rect x="0" y="10" width="2" height="2"></rect>
    <rect x="0" y="12" width="2" height="2"></rect>
    <rect x="0" y="14" width="2" height="2"></rect>
    <rect x="0" y="16" width="2" height="2"></rect>
    <rect x="2" y="2" width="2" height="2"></rect>
    <rect x="2" y="16" width="2" height="2"></rect>
    <rect x="4" y="4" width="2" height="2"></rect>
    <rect x="4" y="16" width="2" height="2"></rect>
    <rect x="6" y="6" width="2" height="2"></rect>
    <rect x="6" y="14" width="2" height="2"></rect>
    <rect x="8" y="8" width="2" height="2"></rect>
    <rect x="8" y="12" width="2" height="2"></rect>
    <rect x="10" y="10" width="2" height="2"></rect>
    <rect x="10" y="14" width="2" height="2"></rect>
    <rect x="12" y="10" width="2" height="2"></rect>
    <rect x="12" y="14" width="2" height="2"></rect>
    <rect x="14" y="14" width="2" height="2"></rect>
    <rect x="14" y="16" width="2" height="2"></rect>
  </g>
  
  <g fill="#00c4d2">
    <rect x="2" y="4" width="2" height="12"></rect>
    <rect x="4" y="6" width="2" height="10"></rect>
    <rect x="6" y="8" width="2" height="6"></rect>
    <rect x="8" y="10" width="2" height="2"></rect>
  </g>
  
  <g fill="#00e0e0">
    <rect x="2" y="4" width="2" height="2"></rect>
    <rect x="2" y="6" width="2" height="2"></rect>
  </g>
  
  <g fill="#7fd030">
    <rect x="10" y="12" width="2" height="2"></rect>
    <rect x="12" y="12" width="2" height="2"></rect>
  </g>
</svg>