<svg xmlns="http://www.w3.org/2000/svg" viewBox="0 0 16 16" shape-rendering="crispEdges" fill="none">
  
  <rect x="2" y="1" width="12" height="14" fill="#1e2127"></rect>
  <rect x="2" y="1" width="12" height="1" fill="#7fd030"></rect>
  <rect x="2" y="14" width="12" height="1" fill="#7fd030"></rect>
  <rect x="2" y="1" width="1" height="14" fill="#7fd030"></rect>
  <rect x="13" y="1" width="1" height="14" fill="#7fd030"></rect>
  
  <rect x="5" y="4" width="1" height="1" fill="#a0e020"></rect>
  <rect x="4" y="5" width="1" height="1" fill="#a0e020"></rect>
  <rect x="4" y="6" width="1" height="1" fill="#a0e020"></rect>
  <rect x="3" y="7" width="1" height="2" fill="#a0e020"></rect>
  <rect x="4" y="9" width="1" height="1" fill="#a0e020"></rect>
  <rect x="4" y="10" width="1" height="1" fill="#a0e020"></rect>
  <rect x="5" y="11" width="1" height="1" fill="#a0e020"></rect>
  
  <rect x="10" y="4" width="1" height="1" fill="#a0e020"></rect>
  <rect x="11" y="5" width="1" height="1" fill="#a0e020"></rect>
  <rect x="11" y="6" width="1" height="1" fill="#a0e020"></rect>
  <rect x="12" y="7" width="1" height="2" fill="#a0e020"></rect>
  <rect x="11" y="9" width="1" height="1" fill="#a0e020"></rect>
  <rect x="11" y="10" width="1" height="1" fill="#a0e020"></rect>
  <rect x="10" y="11" width="1" height="1" fill="#a0e020"></rect>
</svg>