<svg xmlns="http://www.w3.org/2000/svg" viewBox="0 0 32 32" shape-rendering="crispEdges" fill="none">
  

  
  <rect x="2" y="2" width="28" height="28" fill="#0e1013"></rect>
  
  <rect x="0" y="2" width="2" height="28" fill="#ffffff"></rect>
  <rect x="30" y="2" width="2" height="28" fill="#ffffff"></rect>
  <rect x="2" y="0" width="28" height="2" fill="#ffffff"></rect>
  <rect x="2" y="30" width="28" height="2" fill="#ffffff"></rect>

  
  
  <rect x="7" y="8" width="2" height="2" fill="#00c4d2"></rect>
  <rect x="9" y="8" width="2" height="2" fill="#00c4d2"></rect>
  
  <rect x="5" y="10" width="2" height="2" fill="#00c4d2"></rect>
  <rect x="11" y="10" width="2" height="2" fill="#00c4d2"></rect>
  
  <rect x="5" y="12" width="2" height="2" fill="#00c4d2"></rect>
  <rect x="7" y="12" width="2" height="2" fill="#00c4d2"></rect>
  <rect x="9" y="12" width="2" height="2" fill="#00c4d2"></rect>
  <rect x="11" y="12" width="2" height="2" fill="#00c4d2"></rect>
  
  <rect x="5" y="14" width="2" height="2" fill="#00c4d2"></rect>
  <rect x="11" y="14" width="2" height="2" fill="#00c4d2"></rect>
  <rect x="5" y="16" width="2" height="2" fill="#00c4d2"></rect>
  <rect x="11" y="16" width="2" height="2" fill="#00c4d2"></rect>

  
  <rect x="22" y="6" width="2" height="2" fill="#ffffff"></rect>
  <rect x="20" y="8" width="2" height="2" fill="#ffffff"></rect>
  <rect x="22" y="8" width="2" height="2" fill="#00e0e0"></rect>
  <rect x="24" y="8" width="2" height="2" fill="#ffffff"></rect>
  <rect x="22" y="10" width="2" height="2" fill="#ffffff"></rect>

  
  <rect x="17" y="16" width="2" height="2" fill="#7fd030"></rect>
  <rect x="23" y="16" width="2" height="2" fill="#7fd030"></rect>
  <rect x="17" y="18" width="2" height="2" fill="#7fd030"></rect>
  <rect x="23" y="18" width="2" height="2" fill="#7fd030"></rect>
  <rect x="19" y="20" width="2" height="2" fill="#7fd030"></rect>
  <rect x="21" y="20" width="2" height="2" fill="#7fd030"></rect>
  <rect x="19" y="22" width="2" height="2" fill="#7fd030"></rect>
  <rect x="21" y="22" width="2" height="2" fill="#7fd030"></rect>
  <rect x="20" y="24" width="2" height="2" fill="#a0e020"></rect>
</svg>