<svg xmlns="http://www.w3.org/2000/svg" viewBox="0 0 250 64" shape-rendering="crispEdges" fill="none">
  

  
  <rect x="0" y="0" width="64" height="64" fill="#0e1013"></rect>
  <rect x="0" y="0" width="64" height="4" fill="#ffffff"></rect>
  <rect x="0" y="60" width="64" height="4" fill="#ffffff"></rect>
  <rect x="0" y="0" width="4" height="64" fill="#ffffff"></rect>
  <rect x="60" y="0" width="4" height="64" fill="#ffffff"></rect>

  
  <g fill="#00c4d2">
    <rect x="16" y="12" width="4" height="4"></rect>
    <rect x="20" y="12" width="4" height="4"></rect>
    <rect x="12" y="16" width="4" height="4"></rect>
    <rect x="24" y="16" width="4" height="4"></rect>
    <rect x="12" y="20" width="4" height="4"></rect>
    <rect x="16" y="20" width="4" height="4"></rect>
    <rect x="20" y="20" width="4" height="4"></rect>
    <rect x="24" y="20" width="4" height="4"></rect>
    <rect x="12" y="24" width="4" height="4"></rect>
    <rect x="24" y="24" width="4" height="4"></rect>
    <rect x="12" y="28" width="4" height="4"></rect>
    <rect x="24" y="28" width="4" height="4"></rect>
  </g>

  
  <g fill="#ffffff">
    <rect x="44" y="10" width="4" height="4"></rect>
    <rect x="40" y="14" width="4" height="4"></rect>
    <rect x="48" y="14" width="4" height="4"></rect>
    <rect x="44" y="18" width="4" height="4"></rect>
  </g>
  <rect x="44" y="14" width="4" height="4" fill="#00e0e0"></rect>

  
  <g fill="#7fd030">
    <rect x="36" y="32" width="4" height="4"></rect>
    <rect x="48" y="32" width="4" height="4"></rect>
    <rect x="36" y="36" width="4" height="4"></rect>
    <rect x="48" y="36" width="4" height="4"></rect>
    <rect x="40" y="40" width="4" height="4"></rect>
    <rect x="44" y="40" width="4" height="4"></rect>
    <rect x="40" y="44" width="4" height="4"></rect>
    <rect x="44" y="44" width="4" height="4"></rect>
  </g>
  <rect x="40" y="48" width="4" height="4" fill="#a0e020"></rect>
  <rect x="44" y="48" width="4" height="4" fill="#a0e020"></rect>

  
  
  <g fill="#00c4d2">
    <rect x="88" y="14" width="6" height="6"></rect>
    <rect x="94" y="14" width="6" height="6"></rect>
    <rect x="100" y="14" width="6" height="6"></rect>
    <rect x="82" y="20" width="6" height="6"></rect>
    <rect x="106" y="20" width="6" height="6"></rect>
    <rect x="82" y="26" width="6" height="6"></rect>
    <rect x="88" y="26" width="6" height="6"></rect>
    <rect x="94" y="26" width="6" height="6"></rect>
    <rect x="100" y="26" width="6" height="6"></rect>
    <rect x="106" y="26" width="6" height="6"></rect>
    <rect x="82" y="32" width="6" height="6"></rect>
    <rect x="106" y="32" width="6" height="6"></rect>
    <rect x="82" y="38" width="6" height="6"></rect>
    <rect x="106" y="38" width="6" height="6"></rect>
  </g>

  
  <g fill="#15171a">
    <rect x="118" y="14" width="6" height="6"></rect>
    <rect x="142" y="14" width="6" height="6"></rect>
    <rect x="118" y="20" width="6" height="6"></rect>
    <rect x="142" y="20" width="6" height="6"></rect>
    <rect x="118" y="26" width="6" height="6"></rect>
    <rect x="142" y="26" width="6" height="6"></rect>
    <rect x="118" y="32" width="6" height="6"></rect>
    <rect x="142" y="32" width="6" height="6"></rect>
    <rect x="124" y="38" width="6" height="6"></rect>
    <rect x="130" y="38" width="6" height="6"></rect>
    <rect x="136" y="38" width="6" height="6"></rect>
  </g>

  
  <g fill="#7fd030">
    <rect x="154" y="14" width="6" height="6"></rect>
    <rect x="178" y="14" width="6" height="6"></rect>
    <rect x="154" y="20" width="6" height="6"></rect>
    <rect x="178" y="20" width="6" height="6"></rect>
    <rect x="160" y="26" width="6" height="6"></rect>
    <rect x="172" y="26" width="6" height="6"></rect>
    <rect x="160" y="32" width="6" height="6"></rect>
    <rect x="172" y="32" width="6" height="6"></rect>
    <rect x="166" y="38" width="6" height="6"></rect>
  </g>

  
  <text x="82" y="58" font-family="JetBrains Mono, ui-monospace, monospace" font-size="9" letter-spacing="0.12em" fill="#5a5e66">by moeru-ai</text>
</svg>