<svg xmlns="http://www.w3.org/2000/svg" viewBox="0 0 96 112" shape-rendering="crispEdges" fill="none">
  

  
  <g fill="#8de1e8">
    <rect x="14" y="36" width="6" height="40"></rect>
    <rect x="76" y="36" width="6" height="40"></rect>
    <rect x="16" y="76" width="64" height="4"></rect>
  </g>

  
  <g fill="#15171a">
    <rect x="28" y="18" width="2" height="2"></rect>
    <rect x="30" y="16" width="38" height="2"></rect>
    <rect x="68" y="18" width="2" height="2"></rect>
    <rect x="26" y="20" width="2" height="38"></rect>
    <rect x="70" y="20" width="2" height="38"></rect>
    <rect x="28" y="58" width="2" height="2"></rect>
    <rect x="68" y="58" width="2" height="2"></rect>
    <rect x="30" y="60" width="38" height="2"></rect>
  </g>

  
  <g fill="#b8e5ea">
    <rect x="28" y="18" width="42" height="14"></rect>
  </g>
  
  <g fill="#8de1e8">
    <rect x="28" y="30" width="6" height="2"></rect>
    <rect x="36" y="30" width="4" height="2"></rect>
    <rect x="58" y="30" width="4" height="2"></rect>
    <rect x="64" y="30" width="6" height="2"></rect>
    <rect x="26" y="20" width="2" height="14"></rect>
    <rect x="70" y="20" width="2" height="14"></rect>
  </g>
  
  <g fill="#cff4f7">
    <rect x="32" y="20" width="4" height="2"></rect>
    <rect x="46" y="18" width="4" height="2"></rect>
    <rect x="60" y="20" width="4" height="2"></rect>
  </g>
  
  <g fill="#b8e5ea">
    <rect x="26" y="32" width="6" height="14"></rect>
    <rect x="66" y="32" width="6" height="14"></rect>
  </g>
  <g fill="#8de1e8">
    <rect x="26" y="44" width="6" height="2"></rect>
    <rect x="66" y="44" width="6" height="2"></rect>
  </g>

  
  <rect x="46" y="14" width="2" height="2" fill="#b8e5ea"></rect>
  <rect x="44" y="12" width="2" height="2" fill="#b8e5ea"></rect>
  <rect x="44" y="10" width="2" height="2" fill="#8de1e8"></rect>

  
  <g>
    <rect x="22" y="36" width="2" height="2" fill="#ffd042"></rect>
    <rect x="28" y="36" width="2" height="2" fill="#ffd042"></rect>
    <rect x="24" y="38" width="2" height="2" fill="#ffe98a"></rect>
    <rect x="26" y="38" width="2" height="2" fill="#ffe98a"></rect>
    <rect x="24" y="40" width="4" height="2" fill="#ffd042"></rect>
    <rect x="24" y="42" width="2" height="2" fill="#ffe98a"></rect>
    <rect x="26" y="42" width="2" height="2" fill="#ffe98a"></rect>
    <rect x="22" y="44" width="2" height="2" fill="#ffd042"></rect>
    <rect x="28" y="44" width="2" height="2" fill="#ffd042"></rect>
  </g>

  
  <rect x="30" y="32" width="38" height="28" fill="#fbf8f3"></rect>

  
  
  <g fill="#15171a">
    <rect x="34" y="38" width="8" height="2"></rect>
    <rect x="34" y="48" width="8" height="2"></rect>
    <rect x="34" y="40" width="2" height="8"></rect>
    <rect x="40" y="40" width="2" height="8"></rect>
  </g>
  <rect x="36" y="40" width="4" height="8" fill="#00c4d2"></rect>
  <rect x="36" y="40" width="4" height="2" fill="#009ba6"></rect>
  <rect x="36" y="46" width="4" height="2" fill="#00e0e0"></rect>
  <rect x="37" y="41" width="2" height="2" fill="#ffffff"></rect>
  <rect x="38" y="44" width="1" height="1" fill="#ffffff"></rect>

  
  <g fill="#15171a">
    <rect x="56" y="38" width="8" height="2"></rect>
    <rect x="56" y="48" width="8" height="2"></rect>
    <rect x="56" y="40" width="2" height="8"></rect>
    <rect x="62" y="40" width="2" height="8"></rect>
  </g>
  <rect x="58" y="40" width="4" height="8" fill="#00c4d2"></rect>
  <rect x="58" y="40" width="4" height="2" fill="#009ba6"></rect>
  <rect x="58" y="46" width="4" height="2" fill="#00e0e0"></rect>
  <rect x="59" y="41" width="2" height="2" fill="#ffffff"></rect>
  <rect x="60" y="44" width="1" height="1" fill="#ffffff"></rect>

  
  <g fill="#f7bdd0">
    <rect x="31" y="52" width="4" height="2"></rect>
    <rect x="63" y="52" width="4" height="2"></rect>
  </g>

  
  <rect x="46" y="54" width="2" height="2" fill="#15171a"></rect>
  <rect x="48" y="54" width="2" height="2" fill="#15171a"></rect>

  
  
  <g fill="#15171a">
    <rect x="22" y="62" width="2" height="2"></rect>
    <rect x="20" y="64" width="2" height="2"></rect>
    <rect x="74" y="62" width="2" height="2"></rect>
    <rect x="76" y="64" width="2" height="2"></rect>
    <rect x="22" y="66" width="54" height="2"></rect>
    <rect x="20" y="66" width="2" height="42"></rect>
    <rect x="76" y="66" width="2" height="42"></rect>
    <rect x="22" y="108" width="54" height="2"></rect>
  </g>
  
  <rect x="22" y="68" width="54" height="40" fill="#fbf8f3"></rect>
  
  <g fill="#00c4d2">
    <rect x="22" y="62" width="52" height="6"></rect>
    <rect x="30" y="68" width="6" height="6"></rect>
    <rect x="62" y="68" width="6" height="6"></rect>
    <rect x="36" y="68" width="26" height="2"></rect>
  </g>
  
  <rect x="36" y="62" width="26" height="2" fill="#00e0e0"></rect>
  
  <g fill="#ffd042">
    <rect x="46" y="68" width="6" height="4"></rect>
    <rect x="44" y="72" width="10" height="2"></rect>
    <rect x="46" y="74" width="2" height="6"></rect>
    <rect x="50" y="74" width="2" height="6"></rect>
    <rect x="44" y="80" width="10" height="2"></rect>
  </g>
  <rect x="48" y="69" width="2" height="1" fill="#fff4c2"></rect>

  
  <g fill="#15171a">
    <rect x="80" y="80" width="2" height="2"></rect>
    <rect x="82" y="78" width="8" height="2"></rect>
    <rect x="90" y="80" width="2" height="2"></rect>
    <rect x="78" y="82" width="2" height="10"></rect>
    <rect x="92" y="82" width="2" height="10"></rect>
    <rect x="80" y="92" width="2" height="2"></rect>
    <rect x="82" y="94" width="8" height="2"></rect>
    <rect x="90" y="92" width="2" height="2"></rect>
  </g>
  
  <rect x="82" y="80" width="8" height="14" fill="#cff4f7"></rect>
  <rect x="80" y="82" width="2" height="10" fill="#cff4f7"></rect>
  <rect x="90" y="82" width="2" height="10" fill="#cff4f7"></rect>
  <rect x="83" y="81" width="3" height="2" fill="#ffffff"></rect>
  <rect x="83" y="83" width="2" height="1" fill="#ffffff"></rect>
  
  <g fill="#15171a">
    <rect x="90" y="96" width="2" height="2"></rect>
    <rect x="88" y="98" width="2" height="2"></rect>
    <rect x="86" y="100" width="2" height="2"></rect>
    <rect x="84" y="102" width="2" height="2"></rect>
  </g>
  <g fill="#7fd030">
    <rect x="88" y="96" width="2" height="2"></rect>
    <rect x="86" y="98" width="2" height="2"></rect>
    <rect x="84" y="100" width="2" height="2"></rect>
    <rect x="82" y="102" width="2" height="2"></rect>
  </g>

  
  <g fill="#f5d046">
    <rect x="2" y="8" width="2" height="2"></rect>
    <rect x="6" y="8" width="2" height="2"></rect>
    <rect x="4" y="6" width="2" height="2"></rect>
    <rect x="4" y="10" width="2" height="2"></rect>
  </g>
  <rect x="4" y="8" width="2" height="2" fill="#ffffff"></rect>
</svg>