<svg xmlns="http://www.w3.org/2000/svg" viewBox="0 0 64 32" shape-rendering="crispEdges" fill="none">
  
  
  <rect x="20" y="4" width="24" height="2" fill="#00c4d2"></rect>
  <rect x="16" y="6" width="32" height="2" fill="#00c4d2"></rect>
  <rect x="14" y="8" width="36" height="2" fill="#00c4d2"></rect>
  <rect x="14" y="10" width="36" height="2" fill="#00c4d2"></rect>
  
  <rect x="14" y="12" width="6" height="6" fill="#00e0e0"></rect>
  <rect x="44" y="12" width="6" height="6" fill="#00e0e0"></rect>
  
  <rect x="20" y="12" width="24" height="10" fill="#f6f5f1"></rect>
  
  <rect x="24" y="16" width="2" height="4" fill="#00c4d2"></rect>
  <rect x="38" y="16" width="2" height="4" fill="#00c4d2"></rect>
  <rect x="26" y="18" width="1" height="1" fill="#ffffff"></rect>
  <rect x="40" y="18" width="1" height="1" fill="#ffffff"></rect>
  
  <rect x="21" y="20" width="2" height="1" fill="#7fd030"></rect>
  <rect x="41" y="20" width="2" height="1" fill="#7fd030"></rect>
  
  <rect x="31" y="20" width="2" height="1" fill="#15171a"></rect>
  
  <rect x="18" y="12" width="2" height="10" fill="#15171a"></rect>
  <rect x="44" y="12" width="2" height="10" fill="#15171a"></rect>
  <rect x="20" y="22" width="24" height="2" fill="#15171a"></rect>
</svg>